<svg xmlns="http://www.w3.org/2000/svg" viewBox="0 0 512 512"><title>Photographic Styles</title><defs><linearGradient id="base" x2=".2" y2="1"><stop stop-color="#c959dd"/><stop offset="1" stop-color="#0894ff"/></linearGradient><radialGradient id="rose" cx="1" cy="0" r="1"><stop stop-color="#ff2e54"/><stop offset="1" stop-color="#ff2e54" stop-opacity="0"/></radialGradient><radialGradient id="warm" cx="0" cy="0" r=".85"><stop stop-color="#ff9004" stop-opacity=".8"/><stop offset="1" stop-color="#ff9004" stop-opacity="0"/></radialGradient></defs><path fill="url(#base)" d="M0 0h512v512H0z"/><path fill="url(#rose)" d="M0 0h512v512H0z"/><path fill="url(#warm)" d="M0 0h512v512H0z"/><g fill="white"><circle cx="116" cy="116" r="3.2" opacity="0.67"/><circle cx="144" cy="116" r="3.2" opacity="0.71"/><circle cx="172" cy="116" r="3.2" opacity="0.74"/><circle cx="200" cy="116" r="3.2" opacity="0.77"/><circle cx="228" cy="116" r="3.2" opacity="0.80"/><circle cx="256" cy="116" r="3.2" opacity="0.82"/><circle cx="284" cy="116" r="3.2" opacity="0.83"/><circle cx="312" cy="116" r="3.2" opacity="0.83"/><circle cx="340" cy="116" r="3.2" opacity="0.81"/><circle cx="368" cy="116" r="3.2" opacity="0.79"/><circle cx="396" cy="116" r="3.2" opacity="0.76"/><circle cx="116" cy="144" r="3.2" opacity="0.69"/><circle cx="144" cy="144" r="3.2" opacity="0.73"/><circle cx="172" cy="144" r="3.2" opacity="0.76"/><circle cx="200" cy="144" r="3.2" opacity="0.80"/><circle cx="228" cy="144" r="3.2" opacity="0.83"/><circle cx="256" cy="144" r="3.2" opacity="0.85"/><circle cx="284" cy="144" r="3.2" opacity="0.87"/><circle cx="312" cy="144" r="3.2" opacity="0.86"/><circle cx="340" cy="144" r="3.2" opacity="0.84"/><circle cx="368" cy="144" r="3.2" opacity="0.81"/><circle cx="396" cy="144" r="3.2" opacity="0.78"/><circle cx="116" cy="172" r="3.2" opacity="0.70"/><circle cx="144" cy="172" r="3.2" opacity="0.73"/><circle cx="172" cy="172" r="3.2" opacity="0.77"/><circle cx="200" cy="172" r="3.2" opacity="0.81"/><circle cx="228" cy="172" r="3.2" opacity="0.85"/><circle cx="256" cy="172" r="3.2" opacity="0.88"/><circle cx="284" cy="172" r="3.2" opacity="0.90"/><circle cx="312" cy="172" r="3.2" opacity="0.90"/><circle cx="340" cy="172" r="3.2" opacity="0.86"/><circle cx="368" cy="172" r="3.2" opacity="0.83"/><circle cx="396" cy="172" r="3.2" opacity="0.79"/><circle cx="116" cy="200" r="3.2" opacity="0.70"/><circle cx="144" cy="200" r="3.2" opacity="0.74"/><circle cx="172" cy="200" r="3.2" opacity="0.78"/><circle cx="200" cy="200" r="3.2" opacity="0.81"/><circle cx="228" cy="200" r="3.2" opacity="0.85"/><circle cx="256" cy="200" r="3.2" opacity="0.89"/><circle cx="284" cy="200" r="3.2" opacity="0.90"/><circle cx="312" cy="200" r="3.2" opacity="0.90"/><circle cx="340" cy="200" r="3.2" opacity="0.87"/><circle cx="368" cy="200" r="3.2" opacity="0.83"/><circle cx="396" cy="200" r="3.2" opacity="0.79"/><circle cx="116" cy="228" r="3.2" opacity="0.69"/><circle cx="144" cy="228" r="3.2" opacity="0.73"/><circle cx="172" cy="228" r="3.2" opacity="0.77"/><circle cx="200" cy="228" r="3.2" opacity="0.81"/><circle cx="228" cy="228" r="3.2" opacity="0.84"/><circle cx="256" cy="228" r="3.2" opacity="0.87"/><circle cx="284" cy="228" r="3.2" opacity="0.89"/><circle cx="312" cy="228" r="3.2" opacity="0.88"/><circle cx="340" cy="228" r="3.2" opacity="0.86"/><circle cx="368" cy="228" r="3.2" opacity="0.82"/><circle cx="396" cy="228" r="3.2" opacity="0.79"/><circle cx="116" cy="256" r="3.2" opacity="0.68"/><circle cx="144" cy="256" r="3.2" opacity="0.72"/><circle cx="172" cy="256" r="3.2" opacity="0.76"/><circle cx="200" cy="256" r="3.2" opacity="0.79"/><circle cx="228" cy="256" r="3.2" opacity="0.82"/><circle cx="256" cy="256" r="3.2" opacity="0.84"/><circle cx="284" cy="256" r="3.2" opacity="0.85"/><circle cx="312" cy="256" r="3.2" opacity="0.85"/><circle cx="340" cy="256" r="3.2" opacity="0.83"/><circle cx="368" cy="256" r="3.2" opacity="0.80"/><circle cx="396" cy="256" r="3.2" opacity="0.77"/><circle cx="116" cy="284" r="3.2" opacity="0.67"/><circle cx="144" cy="284" r="3.2" opacity="0.70"/><circle cx="172" cy="284" r="3.2" opacity="0.73"/><circle cx="200" cy="284" r="3.2" opacity="0.76"/><circle cx="228" cy="284" r="3.2" opacity="0.79"/><circle cx="256" cy="284" r="3.2" opacity="0.81"/><circle cx="284" cy="284" r="3.2" opacity="0.82"/><circle cx="312" cy="284" r="3.2" opacity="0.81"/><circle cx="340" cy="284" r="3.2" opacity="0.80"/><circle cx="368" cy="284" r="3.2" opacity="0.78"/><circle cx="396" cy="284" r="3.2" opacity="0.75"/><circle cx="116" cy="312" r="3.2" opacity="0.65"/><circle cx="144" cy="312" r="3.2" opacity="0.68"/><circle cx="172" cy="312" r="3.2" opacity="0.71"/><circle cx="200" cy="312" r="3.2" opacity="0.73"/><circle cx="228" cy="312" r="3.2" opacity="0.76"/><circle cx="256" cy="312" r="3.2" opacity="0.77"/><circle cx="284" cy="312" r="3.2" opacity="0.78"/><circle cx="312" cy="312" r="3.2" opacity="0.77"/><circle cx="340" cy="312" r="3.2" opacity="0.76"/><circle cx="368" cy="312" r="3.2" opacity="0.74"/><circle cx="396" cy="312" r="3.2" opacity="0.72"/><circle cx="116" cy="340" r="3.2" opacity="0.63"/><circle cx="144" cy="340" r="3.2" opacity="0.65"/><circle cx="172" cy="340" r="3.2" opacity="0.68"/><circle cx="200" cy="340" r="3.2" opacity="0.70"/><circle cx="228" cy="340" r="3.2" opacity="0.72"/><circle cx="256" cy="340" r="3.2" opacity="0.73"/><circle cx="284" cy="340" r="3.2" opacity="0.74"/><circle cx="312" cy="340" r="3.2" opacity="0.74"/><circle cx="340" cy="340" r="3.2" opacity="0.73"/><circle cx="368" cy="340" r="3.2" opacity="0.71"/><circle cx="396" cy="340" r="3.2" opacity="0.69"/><circle cx="116" cy="368" r="3.2" opacity="0.60"/><circle cx="144" cy="368" r="3.2" opacity="0.63"/><circle cx="172" cy="368" r="3.2" opacity="0.65"/><circle cx="200" cy="368" r="3.2" opacity="0.67"/><circle cx="228" cy="368" r="3.2" opacity="0.68"/><circle cx="256" cy="368" r="3.2" opacity="0.70"/><circle cx="284" cy="368" r="3.2" opacity="0.70"/><circle cx="312" cy="368" r="3.2" opacity="0.70"/><circle cx="340" cy="368" r="3.2" opacity="0.69"/><circle cx="368" cy="368" r="3.2" opacity="0.68"/><circle cx="396" cy="368" r="3.2" opacity="0.66"/><circle cx="116" cy="396" r="3.2" opacity="0.57"/><circle cx="144" cy="396" r="3.2" opacity="0.59"/><circle cx="172" cy="396" r="3.2" opacity="0.62"/><circle cx="200" cy="396" r="3.2" opacity="0.63"/><circle cx="228" cy="396" r="3.2" opacity="0.65"/><circle cx="256" cy="396" r="3.2" opacity="0.66"/><circle cx="284" cy="396" r="3.2" opacity="0.66"/><circle cx="312" cy="396" r="3.2" opacity="0.66"/><circle cx="340" cy="396" r="3.2" opacity="0.65"/><circle cx="368" cy="396" r="3.2" opacity="0.64"/><circle cx="396" cy="396" r="3.2" opacity="0.62"/><circle cx="340" cy="200" r="19"/></g></svg>
